<svg width="22" height="22" viewBox="0 0 22 22" fill="none" xmlns="http://www.w3.org/2000/svg">
<path d="M10.2575 14.6575C10.4592 14.8592 10.7114 14.9552 11.0143 14.9457C11.3164 14.9369 11.5683 14.8317 11.77 14.63C11.9717 14.4283 12.0725 14.1717 12.0725 13.86C12.0725 13.5483 11.9717 13.2917 11.77 13.09L10.78 12.1H14.3275C14.6392 12.1 14.8958 11.9944 15.0975 11.7832C15.2992 11.5727 15.4 11.3117 15.4 11C15.4 10.6883 15.2948 10.4269 15.0843 10.2157C14.8731 10.0052 14.6117 9.9 14.3 9.9H10.78L11.7975 8.8825C11.9992 8.68083 12.0956 8.42857 12.0868 8.1257C12.0773 7.82357 11.9717 7.57167 11.77 7.37C11.5683 7.16833 11.3117 7.0675 11 7.0675C10.6883 7.0675 10.4317 7.16833 10.23 7.37L7.37 10.23C7.16833 10.4317 7.0675 10.6883 7.0675 11C7.0675 11.3117 7.16833 11.5683 7.37 11.77L10.2575 14.6575ZM11 22C9.47833 22 8.04833 21.7111 6.71 21.1332C5.37167 20.5561 4.2075 19.7725 3.2175 18.7825C2.2275 17.7925 1.44393 16.6283 0.8668 15.29C0.288933 13.9517 0 12.5217 0 11C0 9.47833 0.288933 8.04833 0.8668 6.71C1.44393 5.37167 2.2275 4.2075 3.2175 3.2175C4.2075 2.2275 5.37167 1.44357 6.71 0.8657C8.04833 0.288567 9.47833 0 11 0C12.5217 0 13.9517 0.288567 15.29 0.8657C16.6283 1.44357 17.7925 2.2275 18.7825 3.2175C19.7725 4.2075 20.5561 5.37167 21.1332 6.71C21.7111 8.04833 22 9.47833 22 11C22 12.5217 21.7111 13.9517 21.1332 15.29C20.5561 16.6283 19.7725 17.7925 18.7825 18.7825C17.7925 19.7725 16.6283 20.5561 15.29 21.1332C13.9517 21.7111 12.5217 22 11 22Z" fill="#30104B"/>
</svg>
